<?xml version="1.0" encoding="UTF-8"?>
<svg width="50" height="50" version="1.1" viewBox="0 0 50.000001 50.000001" xmlns="http://www.w3.org/2000/svg">
 <g transform="translate(0 -1002.4)">
  <g transform="matrix(1.1984 0 0 1.1984 -2.3288 -204.35)" fill="#30a4ff">
   <path transform="translate(0 1002.4)" d="m6.1289 10.354s-1.0335 0.07451-1.3711 0.41211v0.0059c-0.33764 0.3376-0.41211 1.373-0.41211 1.373l-0.00195 1.7812v1.7832l-0.00195 1.7812-0.00195 1.7832v1.7832l-0.00195 1.7812c-0.00121 1.7824-4.538e-4 1.7827 0.60938 2.3926l0.60938 0.60938 0.60938 0.60938 0.61133 0.61133 0.60938 0.60938 0.60938 0.60938 0.60938 0.60938 0.60938 0.61133 0.61133 0.60938 0.60938 0.60938 0.60938 0.60938 0.60938 0.61133 0.61133 0.60938 0.60938 0.60938 0.60938 0.60938 0.60938 0.60938 0.61133 0.61133 0.60938 0.60938 0.60938 0.60938 0.60937 0.60938 0.60938 0.61133 0.61133 0.60938 0.60938 0.60938 0.60938 0.60938 0.60938 0.61133 0.61133 0.60937 0.60938 0.60938 0.60938 0.60937 0.60938 0.60938 0.61133 0.61133 0.60938 0.60938 0.60937 0.60938c0.03041 0.03 0.06225 0.05989 0.09375 0.08789 0.0315 0.029 0.06306 0.05698 0.0957 0.08398 0.03256 0.027 0.06605 0.05117 0.09961 0.07617 0.03359 0.025 0.06709 0.04831 0.10156 0.07031 0.03444 0.023 0.06821 0.04641 0.10352 0.06641 0.0353 0.021 0.07136 0.03959 0.10742 0.05859s0.07262 0.03769 0.10938 0.05469c0.03675 0.017 0.07396 0.03383 0.11133 0.04883 0.03738 0.015 0.07537 0.02897 0.11328 0.04297 0.03792 0.013 0.07684 0.02611 0.11523 0.03711 0.03839 0.012 0.07645 0.02225 0.11523 0.03125 0.03879 0.01 0.07808 0.01739 0.11719 0.02539 0.03911 0.01 0.07783 0.01353 0.11719 0.01953 0.03937 0.01 0.07958 0.01067 0.11914 0.01367 0.03955 0 0.07753 0.0098 0.11719 0.0098h0.11914c0.0397 0 0.07948-1e-3 0.11914 0 0.03966 0 0.07959 2.34e-4 0.11914-0.0098 0.03955 0 0.07977-0.0097 0.11914-0.01367 0.03937-0.01 0.07806-0.01153 0.11719-0.01953 0.03911-0.01 0.0784-0.01539 0.11719-0.02539s0.07684-0.02025 0.11523-0.03125 0.07732-0.02411 0.11524-0.03711 0.07591-0.02797 0.11328-0.04297c0.03738-0.015 0.07458-0.03183 0.11133-0.04883 0.03676-0.017 0.07331-0.03569 0.10938-0.05469 0.03606-0.019 0.07017-0.03759 0.10547-0.05859s0.071-0.04441 0.10547-0.06641c0.03444-0.023 0.068-0.04631 0.10156-0.07031 0.03359-0.025 0.06702-0.04917 0.09961-0.07617 0.03256-0.027 0.06413-0.05499 0.0957-0.08398 0.0315-0.028 0.06334-0.05789 0.09375-0.08789l0.33594-0.33594 0.33594-0.33594 0.33594-0.33594 0.33594-0.33594 0.33594-0.33594 0.33594-0.33594 0.33789-0.33594 0.33594-0.33789 0.33594-0.33594 0.33594-0.33594 0.33594-0.33594 0.33594-0.33594 0.33594-0.33594 0.33594-0.33594 0.33594-0.33594 0.33594-0.33594 0.33594-0.33594 0.33789-0.33594 0.33594-0.33789 0.33594-0.33594 0.33594-0.33594 0.33594-0.33594 0.33594-0.33594 0.33594-0.33594 0.33594-0.33594 0.33594-0.33594 0.33594-0.33594 0.33594-0.33594 0.33789-0.33594 0.33594-0.33789 0.33594-0.33594 0.33594-0.33594c0.03041-0.03 0.05936-0.0598 0.08789-0.0918s0.05548-0.06566 0.08203-0.09766c0.02662-0.032 0.05342-0.06466 0.07813-0.09766 0.02468-0.034 0.04751-0.06746 0.07031-0.10156 0.02284-0.034 0.0455-0.06987 0.06641-0.10547 0.0209-0.035 0.04155-0.07132 0.06055-0.10742 0.01901-0.036 0.03563-0.07207 0.05273-0.10938 0.0171-0.037 0.03363-0.07413 0.04883-0.11133 0.0152-0.037 0.02967-0.07538 0.04297-0.11328 0.01331-0.038 0.0257-0.07478 0.03711-0.11328 0.01141-0.038 0.02176-0.07643 0.03125-0.11523 0.0095-0.039 0.01779-0.07839 0.02539-0.11719 0.0076-0.039 0.01383-0.07934 0.01953-0.11914 0.0057-0.039 0.01181-0.07779 0.01563-0.11719 0.0038-0.039 6e-3 -0.07934 0.0078-0.11914 0.0019-0.04 0.0019-0.07904 2e-3 -0.11914 0-0.04-1.07e-4 -0.07914-2e-3 -0.11914-0.0019-0.04-0.0041-0.07934-0.0078-0.11914-0.0038-0.04-0.01-0.07779-0.01563-0.11719-0.0057-0.039-0.01193-0.08034-0.01953-0.11914-0.0076-0.039-0.0159-0.07839-0.02539-0.11719-0.0095-0.039-0.01985-0.07643-0.03125-0.11523-0.01141-0.038-0.0238-0.07578-0.03711-0.11328-0.0133-0.038-0.02777-0.07628-0.04297-0.11328s-0.03173-0.07413-0.04883-0.11133c-0.0171-0.037-0.03374-0.07317-0.05273-0.10938-0.01901-0.036-0.03964-0.07232-0.06055-0.10742-0.02091-0.035-0.04361-0.07077-0.06641-0.10547-0.02284-0.034-0.04561-0.06756-0.07031-0.10156-0.02468-0.034-0.05152-0.06566-0.07813-0.09766-0.02662-0.033-0.05357-0.06666-0.08203-0.09766-0.02853-0.032-0.05749-0.0608-0.08789-0.0918l-0.60938-0.6094-0.61133-0.61133-0.60938-0.60938-0.60938-0.60938-0.60938-0.60938-0.61133-0.61133-0.60938-0.60938-0.60937-0.60938-0.60938-0.60938-0.60937-0.61133-0.61133-0.60938-0.60938-0.60938-0.60938-0.60938-0.60938-0.61133-0.61133-0.60938-0.60938-0.60938-0.60938-0.60938-0.60938-0.60938-0.61133-0.61133-0.60938-0.60938-0.60938-0.60938-0.60938-0.60938-0.60938-0.61133-0.61133-0.60938-0.60938-0.60938-0.60938-0.60938-0.60938-0.60938-0.61133-0.61133-0.60938-0.60938-0.60938-0.60938-0.60938-0.60938c-0.60986-0.6098-0.61017-0.61058-2.3926-0.60938h-10.695zm3.5547 2.957a2.3881 2.3881 0 0 1 2.3887 2.3887 2.3881 2.3881 0 0 1 -2.3887 2.3867 2.3881 2.3881 0 0 1 -2.3867 -2.3867 2.3881 2.3881 0 0 1 2.3867 -2.3887z"/>
  </g>
 </g>
</svg>